<svg width="20" height="20" viewBox="0 0 20 20" fill="none" xmlns="http://www.w3.org/2000/svg">
<path d="M7.5 15.8333C7.5 16.5333 7.60833 17.2167 7.80833 17.85C4.60833 16.7417 2.19167 13.8 1.94167 10.3583C1.69167 6.7 3.8 3.28333 7.20833 1.85C8.09167 1.48333 8.54167 1.75 8.73333 1.94166C8.91667 2.125 9.175 2.56666 8.80833 3.40833C8.43333 4.275 8.25 5.19166 8.25 6.14166C8.25833 7.84166 8.925 9.41666 10.0083 10.625C8.48333 11.8417 7.5 13.725 7.5 15.8333Z" fill="#C0B9B9"/>
<path opacity="0.4" d="M17.675 14.7667C16.025 17.0083 13.4083 18.325 10.6167 18.325C10.4833 18.325 10.35 18.3167 10.2167 18.3083C9.38333 18.275 8.575 18.1167 7.80833 17.85C7.60833 17.2167 7.5 16.5333 7.5 15.8333C7.5 13.725 8.48333 11.8417 10.0083 10.625C11.2333 12 12.9917 12.8917 14.9333 12.975C15.4583 13 15.9833 12.9583 16.5 12.8667C17.4333 12.7 17.8083 13.05 17.9417 13.275C18.0833 13.5 18.2333 13.9917 17.675 14.7667Z" fill="#C0B9B9"/>
</svg>
